<svg width="138" height="28" viewBox="0 0 138 28" xmlns="http://www.w3.org/2000/svg"><path d="M.14 17L4.82 4.72H8.1L12.78 17H9.52l-.88-2.38H4.18L3.32 17H.14zm7.54-5.02L6.42 8.52l-1.26 3.46h2.52zm8.1-4.5H12V4.72h10.8v2.76H19V17h-3.22V7.48zm15.6 0H27.6V4.72h10.8v2.76h-3.8V17h-3.22V7.48zm16.3 1.9V4.72h3.22V17h-3.22v-4.86h-4.74V17h-3.22V4.72h3.22v4.66h4.74zM52.72 17V4.72h8.78v2.76h-5.62V9.4h5.14v2.7h-5.14v2.12h5.62V17h-8.78zm14.38 0V4.72h8.78v2.76h-5.62V9.4h5.14v2.7h-5.14v2.12h5.62V17H67.1zm13.54-9.52v6.74h1.32q1.52 0 2.35-.9.83-.9.83-2.46 0-1.58-.83-2.48-.83-.9-2.35-.9h-1.32zM82.12 17h-4.64V4.72h4.64q2.88 0 4.54 1.66 1.66 1.66 1.66 4.48 0 2.82-1.66 4.48Q85 17 82.12 17zm13.5-2.66q1 0 1.58-.44v-1.2h-1.78v-2.56h4.62v5.42q-1.78 1.64-4.52 1.64-2.84 0-4.54-1.75-1.7-1.75-1.7-4.55 0-2.88 1.81-4.63t4.75-1.75q2.08 0 3.56.96V8.6q-1.54-1.12-3.56-1.12-1.48 0-2.41.92-.93.92-.93 2.5 0 1.56.86 2.5t2.26.94zm6.04 2.66V4.72h8.78v2.76h-5.62V9.4h5.14v2.7h-5.14v2.12h5.62V17h-8.78z" fill="#fff"/></svg>