<svg width="138" height="28" viewBox="0 0 138 28" xmlns="http://www.w3.org/2000/svg"><path d="M12.44 10.86q0 2.76-1.68 4.55T6.42 17.2q-2.64 0-4.31-1.79Q.44 13.62.44 10.86q0-2.78 1.67-4.56 1.67-1.78 4.31-1.78 2.66 0 4.34 1.78 1.68 1.78 1.68 4.56zm-4.01 2.55q.77-.97.77-2.55 0-1.58-.77-2.55-.77-.97-2.01-.97-1.24 0-1.99.96t-.75 2.56q0 1.6.75 2.56t1.99.96q1.24 0 2.01-.97zm8.53-.75V17h-3.18V4.72h8.64V7.5h-5.46v2.44h5.02v2.72h-5.02zM30.6 4.72l2.58 4.8 2.58-4.8h3.38l-4.44 7.92V17h-3.22v-4.36l-4.36-7.92h3.48zm20.1 6.14q0 2.76-1.68 4.55t-4.34 1.79q-2.64 0-4.31-1.79-1.67-1.79-1.67-4.55 0-2.78 1.67-4.56 1.67-1.78 4.31-1.78 2.66 0 4.34 1.78 1.68 1.78 1.68 4.56zm-4.01 2.55q.77-.97.77-2.55 0-1.58-.77-2.55-.77-.97-2.01-.97-1.24 0-1.99.96t-.75 2.56q0 1.6.75 2.56t1.99.96q1.24 0 2.01-.97zm10.57 3.79q-2.48 0-3.92-1.36t-1.44-3.86V4.72h3.2v6.98q0 1.28.57 1.96.57.68 1.59.68 1 0 1.57-.68.57-.68.57-1.96V4.72h3.2V12q0 2.48-1.44 3.84-1.44 1.36-3.9 1.36zm13.9-.2l-2.56-4.06h-1.12V17H64.3V4.72h5.52q2.02 0 3.24 1.1 1.22 1.1 1.22 3.08 0 1.36-.65 2.32-.65.96-1.79 1.38l2.88 4.4h-3.56zm-1.68-9.58h-2v2.96h2q1.66 0 1.66-1.48t-1.66-1.48zm13.46.06v6.74h1.32q1.52 0 2.35-.9.83-.9.83-2.46 0-1.58-.83-2.48-.83-.9-2.35-.9h-1.32zM84.42 17h-4.64V4.72h4.64q2.88 0 4.54 1.66 1.66 1.66 1.66 4.48 0 2.82-1.66 4.48Q87.3 17 84.42 17zm6.08 0l4.68-12.28h3.28L103.14 17h-3.26L99 14.62h-4.46L93.68 17H90.5zm7.54-5.02l-1.26-3.46-1.26 3.46h2.52zm8.1-4.5h-3.78V4.72h10.8v2.76h-3.8V17h-3.22V7.48zm6.24 9.52l4.68-12.28h3.28L125.02 17h-3.26l-.88-2.38h-4.46l-.86 2.38h-3.18zm7.54-5.02l-1.26-3.46-1.26 3.46h2.52z" fill="#fff"/></svg>