<svg width="628.507" height="36" viewBox="0 0 628.507 36" xmlns="http://www.w3.org/2000/svg"><path d="M16.172 14.118q0 3.588-2.184 5.915T8.346 22.36q-3.432 0-5.603-2.327T.572 14.118q0-3.614 2.171-5.928t5.603-2.314q3.458 0 5.642 2.314t2.184 5.928zm-5.213 3.315q1.001-1.261 1.001-3.315 0-2.054-1.001-3.315-1.001-1.261-2.613-1.261T5.759 10.79q-.975 1.248-.975 3.328t.975 3.328q.975 1.248 2.587 1.248t2.613-1.261zm11.089-.975V22.1h-4.134V6.136h11.232V9.75h-7.098v3.172h6.526v3.536h-6.526zm18.486-6.734H35.62V6.136h14.04v3.588h-4.94V22.1h-4.186V9.724zm21.19 2.47V6.136h4.186V22.1h-4.186v-6.318h-6.162V22.1h-4.186V6.136h4.186v6.058h6.162zm6.552 9.906V6.136H79.69v3.588h-7.306v2.496h6.682v3.51h-6.682v2.756h7.306V22.1H68.276zm20.332-2.002q-2.262-2.262-2.262-5.98 0-3.718 2.262-5.98 2.262-2.262 5.928-2.262 2.418 0 4.056 1.092v4.056q-1.69-1.3-3.718-1.3-2.002 0-3.172 1.17-1.17 1.17-1.17 3.224 0 2.028 1.17 3.198t3.172 1.17q2.08 0 3.718-1.274v4.056q-1.638 1.092-4.056 1.092-3.666 0-5.928-2.262zM112.06 22.1h-11.336V6.136h4.186v12.35h7.15V22.1zm16.354-7.982q0 3.588-2.184 5.915t-5.642 2.327q-3.432 0-5.603-2.327t-2.171-5.915q0-3.614 2.171-5.928t5.603-2.314q3.458 0 5.642 2.314t2.184 5.928zm-5.213 3.315q1.001-1.261 1.001-3.315 0-2.054-1.001-3.315-1.001-1.261-2.613-1.261t-2.587 1.248q-.975 1.248-.975 3.328t.975 3.328q.975 1.248 2.587 1.248t2.613-1.261zm13.741 4.927q-3.224 0-5.096-1.768-1.872-1.768-1.872-5.018V6.136h4.16v9.074q0 1.664.741 2.548.741.884 2.067.884 1.3 0 2.041-.884.741-.884.741-2.548V6.136h4.16V15.6q0 3.224-1.872 4.992-1.872 1.768-5.07 1.768zm13.26-12.636v8.762h1.716q1.976 0 3.055-1.17 1.079-1.17 1.079-3.198 0-2.054-1.079-3.224-1.079-1.17-3.055-1.17h-1.716zm1.924 12.376h-6.032V6.136h6.032q3.744 0 5.902 2.158t2.158 5.824q0 3.666-2.158 5.824t-5.902 2.158z" fill="#fff"/></svg>