<svg width="356" height="78" viewBox="0 0 356 78" xmlns="http://www.w3.org/2000/svg"><path d="M0 42.9l6.032-15.964h5.252L17.316 42.9H12.22l-.832-2.314H5.772L4.94 42.9H0zm9.906-6.396L8.58 32.838l-1.326 3.666h2.652zm9.048 4.407q-2.314-2.249-2.314-5.993t2.314-5.993q2.314-2.249 6.162-2.249 2.366 0 3.952.936v4.758q-1.638-1.014-3.432-1.014-1.872 0-2.912.91-1.04.91-1.04 2.652 0 1.716 1.04 2.626 1.04.91 2.912.91 1.846 0 3.432-.988v4.758q-1.586.936-3.952.936-3.848 0-6.162-2.249zm15.912-9.685H30.16v-4.29h14.456v4.29H39.91V42.9h-5.044V31.226zM66.3 34.918q0 3.588-2.249 5.915T58.24 43.16q-3.562 0-5.798-2.327t-2.236-5.915q0-3.614 2.236-5.928t5.798-2.314q3.562 0 5.811 2.314t2.249 5.928zm-5.889 2.808q.819-1.04.819-2.808 0-1.768-.819-2.808-.819-1.04-2.171-1.04-1.352 0-2.158 1.04-.806 1.04-.806 2.808 0 1.768.806 2.808.806 1.04 2.158 1.04 1.352 0 2.171-1.04zm17.069-10.79h4.862V42.9h-4.134l-5.824-7.982V42.9h-4.862V26.936h4.706l5.252 7.436v-7.436zm16.38 4.29v7.358h1.222q1.664 0 2.587-.988.923-.988.923-2.678 0-1.716-.923-2.704-.923-.988-2.587-.988H93.86zM95.342 42.9H88.92V26.936h6.422q3.848 0 6.032 2.158t2.184 5.824q0 3.666-2.184 5.824T95.342 42.9zm7.54 0l6.032-15.964h5.252l6.032 15.964h-5.096l-.832-2.314h-5.616l-.832 2.314h-4.94zm9.906-6.396l-1.326-3.666-1.326 3.666h2.652zm10.66-5.278h-4.706v-4.29h14.456v4.29h-4.706V42.9h-5.044V31.226zm8.294 11.674l6.032-15.964h5.252l6.032 15.964h-5.096l-.832-2.314h-5.616l-.832 2.314h-4.94zm9.906-6.396l-1.326-3.666-1.326 3.666h2.652zM153.92 42.9l6.032-15.964h5.252l6.032 15.964h-5.096l-.832-2.314h-5.616l-.832 2.314h-4.94zm9.906-6.396l-1.326-3.666-1.326 3.666h2.652zm10.66-5.278h-4.706v-4.29h14.456v4.29h-4.706V42.9h-5.044V31.226zm20.046 0h-4.706v-4.29h14.456v4.29h-4.706V42.9h-5.044V31.226zm21.086 1.456v-5.746h5.044V42.9h-5.044v-5.928h-5.07V42.9h-5.044V26.936h5.044v5.746h5.07zm6.76 10.218V26.936h12.012v4.29h-7.046v1.508h6.448v4.16h-6.448v1.69h7.046V42.9h-12.012zm18.434 0V26.936h12.012v4.29h-7.046v1.508h6.448v4.16h-6.448v1.69h7.046V42.9h-12.012zm18.512-11.674v7.358h1.222q1.664 0 2.587-.988.923-.988.923-2.678 0-1.716-.923-2.704-.923-.988-2.587-.988h-1.222zm1.482 11.674h-6.422V26.936h6.422q3.848 0 6.032 2.158t2.184 5.824q0 3.666-2.184 5.824t-6.032 2.158zm17.628-4.238q.91 0 1.43-.286v-.702h-1.898v-3.952h6.266v7.462q-2.392 1.976-5.98 1.976-3.796 0-6.084-2.275t-2.288-5.889q0-3.796 2.405-6.058t6.435-2.262q2.704 0 4.706 1.17v4.784q-2.08-1.274-4.706-1.274-1.716 0-2.756.949-1.04.949-1.04 2.691 0 1.69.988 2.678t2.522.988zm7.332 4.238V26.936h12.012v4.29h-7.046v1.508h6.448v4.16h-6.448v1.69h7.046V42.9h-12.012zM.858 52.936h5.044V68.9H.858V52.936zm16.718 0h4.862V68.9h-4.134l-5.824-7.982V68.9H7.618V52.936h4.706l5.252 7.436v-7.436zM37.83 68.9l-2.678-4.576h-1.17V68.9h-4.966V52.936h7.774q2.678 0 4.342 1.547 1.664 1.547 1.664 4.277 0 3.38-2.73 4.81l3.302 5.33H37.83zm-1.716-11.778h-2.132v3.25h2.132q1.794 0 1.794-1.612 0-1.638-1.794-1.638zM44.226 68.9V52.936h12.012v4.29h-7.046v1.508h6.448v4.16h-6.448v1.69h7.046V68.9H44.226zm12.714 0l6.032-15.964h5.252L74.256 68.9H69.16l-.832-2.314h-5.616L61.88 68.9h-4.94zm9.906-6.396l-1.326-3.666-1.326 3.666h2.652zM87.022 68.9H75.114V52.936h5.044v11.648h6.864V68.9zm10.504-11.674H92.82v-4.29h14.456v4.29h-4.706V68.9h-5.044V57.226zm10.972-4.29h5.044V68.9h-5.044V52.936zm19.006 8.008l-3.614 4.524h-.104l-3.588-4.524V68.9h-4.94V52.936h4.68l3.9 5.434 3.926-5.434h4.68V68.9h-4.94v-7.956zm6.656 7.956V52.936h12.012v4.29h-7.046v1.508h6.448v4.16h-6.448v1.69h7.046V68.9H134.16z" fill="#fff"/></svg>