<svg width="142" height="154" viewBox="0 0 142 154" xmlns="http://www.w3.org/2000/svg"><path d="M4.488 25.828v7.414H5.94q1.672 0 2.585-.99t.913-2.706q0-1.738-.913-2.728-.913-.99-2.585-.99H4.488zM6.116 36.3H1.012V22.792h5.104q3.168 0 4.994 1.826 1.826 1.826 1.826 4.928t-1.826 4.928Q9.284 36.3 6.116 36.3zm21.076-6.754q0 3.036-1.848 5.005-1.848 1.969-4.774 1.969-2.904 0-4.741-1.969-1.837-1.969-1.837-5.005 0-3.058 1.837-5.016 1.837-1.958 4.741-1.958 2.926 0 4.774 1.958 1.848 1.958 1.848 5.016zm-4.411 2.805q.847-1.067.847-2.805 0-1.738-.847-2.805-.847-1.067-2.211-1.067-1.364 0-2.189 1.056t-.825 2.816q0 1.76.825 2.816.825 1.056 2.189 1.056t2.211-1.067zm18.777-3.025q.968.308 1.584 1.188.616.88.616 2.002 0 1.826-1.177 2.805-1.177.979-3.311.979h-6.204V22.792h5.786q2.134 0 3.322.946 1.188.946 1.188 2.728 0 1.056-.517 1.815-.517.759-1.287 1.045zm-5.126-3.63v2.442h2.024q1.584 0 1.584-1.232 0-1.21-1.584-1.21h-2.024zm2.376 5.082h-2.376v2.618h2.376q.726 0 1.133-.352.407-.352.407-.946 0-.616-.407-.968t-1.133-.352zm19.184-1.232q0 3.036-1.848 5.005-1.848 1.969-4.774 1.969-2.904 0-4.741-1.969-1.837-1.969-1.837-5.005 0-3.058 1.837-5.016 1.837-1.958 4.741-1.958 2.926 0 4.774 1.958 1.848 1.958 1.848 5.016zm-4.411 2.805q.847-1.067.847-2.805 0-1.738-.847-2.805-.847-1.067-2.211-1.067-1.364 0-2.189 1.056t-.825 2.816q0 1.76.825 2.816.825 1.056 2.189 1.056t2.211-1.067zm8.899-6.523h-4.158v-3.036h11.88v3.036h-4.18V36.3H62.48V25.828zm17.93 2.09v-5.126h3.542V36.3H80.41v-5.346h-5.214V36.3h-3.542V22.792h3.542v5.126h5.214zM5.632 52.734l2.09-7.942h2.684l2.068 7.942 1.87-7.942h3.564L14.344 58.3H11.11l-2.09-7.92-2.112 7.92H3.674L.132 44.792H3.74l1.892 7.942zm13.42-7.942h3.542V58.3h-3.542V44.792zm9.152 3.036h-4.158v-3.036h11.88v3.036h-4.18V58.3h-3.542V47.828zm17.93 2.09v-5.126h3.542V58.3h-3.542v-5.346H40.92V58.3h-3.542V44.792h3.542v5.126h5.214zm13.53-2.09h-4.158v-3.036h11.88v3.036h-4.18V58.3h-3.542V47.828zm17.93 2.09v-5.126h3.542V58.3h-3.542v-5.346H72.38V58.3h-3.542V44.792h3.542v5.126h5.214zm5.544 8.382V44.792h9.658v3.036h-6.182v2.112h5.654v2.97h-5.654v2.332h6.182V58.3h-9.658zM2.398 78.606Q.484 76.692.484 73.546t1.914-5.06q1.914-1.914 5.016-1.914 2.046 0 3.432.924v3.432q-1.43-1.1-3.146-1.1-1.694 0-2.684.99-.99.99-.99 2.728 0 1.716.99 2.706t2.684.99q1.76 0 3.146-1.078v3.432q-1.386.924-3.432.924-3.102 0-5.016-1.914zM22.242 80.3H12.65V66.792h3.542v10.45h6.05V80.3zm13.838-6.754q0 3.036-1.848 5.005-1.848 1.969-4.774 1.969-2.904 0-4.741-1.969-1.837-1.969-1.837-5.005 0-3.058 1.837-5.016 1.837-1.958 4.741-1.958 2.926 0 4.774 1.958 1.848 1.958 1.848 5.016zm-4.411 2.805q.847-1.067.847-2.805 0-1.738-.847-2.805-.847-1.067-2.211-1.067-1.364 0-2.189 1.056t-.825 2.816q0 1.76.825 2.816.825 1.056 2.189 1.056t2.211-1.067zm11.627 4.169q-2.728 0-4.312-1.496T37.4 74.778v-7.986h3.52v7.678q0 1.408.627 2.156.627.748 1.749.748 1.1 0 1.727-.748t.627-2.156v-7.678h3.52V74.8q0 2.728-1.584 4.224t-4.29 1.496zm11.22-10.692v7.414h1.452q1.672 0 2.585-.99t.913-2.706q0-1.738-.913-2.728-.913-.99-2.585-.99h-1.452zM56.144 80.3H51.04V66.792h5.104q3.168 0 4.994 1.826 1.826 1.826 1.826 4.928t-1.826 4.928Q59.312 80.3 56.144 80.3zm16.28-10.472h-4.158v-3.036h11.88v3.036h-4.18V80.3h-3.542V69.828zm17.93 2.09v-5.126h3.542V80.3h-3.542v-5.346H85.14V80.3h-3.542V66.792h3.542v5.126h5.214zM95.04 80.3l5.148-13.508h3.608l5.148 13.508h-3.586l-.968-2.618h-4.906l-.946 2.618H95.04zm8.294-5.522l-1.386-3.806-1.386 3.806h2.772zm8.91-4.95h-4.158v-3.036h11.88v3.036h-4.18V80.3h-3.542V69.828zM2.398 100.606Q.484 98.692.484 95.546t1.914-5.06q1.914-1.914 5.016-1.914 2.046 0 3.432.924v3.432q-1.43-1.1-3.146-1.1-1.694 0-2.684.99-.99.99-.99 2.728 0 1.716.99 2.706t2.684.99q1.76 0 3.146-1.078v3.432q-1.386.924-3.432.924-3.102 0-5.016-1.914zm22.88-5.06q0 3.036-1.848 5.005-1.848 1.969-4.774 1.969-2.904 0-4.741-1.969-1.837-1.969-1.837-5.005 0-3.058 1.837-5.016 1.837-1.958 4.741-1.958 2.926 0 4.774 1.958 1.848 1.958 1.848 5.016zm-4.411 2.805q.847-1.067.847-2.805 0-1.738-.847-2.805-.847-1.067-2.211-1.067-1.364 0-2.189 1.056t-.825 2.816q0 1.76.825 2.816.825 1.056 2.189 1.056t2.211-1.067zm16.357-3.795l-3.454 4.84h-.088l-3.476-4.84v7.744h-3.454V88.792h3.278l3.696 5.5 3.718-5.5H40.7V102.3h-3.476v-7.744zm5.5 7.744V88.792h9.658v3.036H46.2v2.112h5.654v2.97H46.2v2.332h6.182v3.058h-9.658zm11.11-.88v-3.256q2.068 1.408 4.334 1.408 2.09 0 2.09-1.078 0-.462-.264-.693-.264-.231-.88-.451l-2.046-.594q-1.782-.506-2.651-1.452-.869-.946-.869-2.574 0-1.958 1.441-3.058 1.441-1.1 3.663-1.1 2.398 0 4.246 1.012v3.256q-1.936-1.342-4.092-1.342-1.782 0-1.782.968 0 .44.275.671.275.231.847.407l2.046.616q1.848.572 2.717 1.573t.869 2.563q0 2.09-1.551 3.157-1.551 1.067-3.971 1.067-2.596 0-4.422-1.1zm19.382-9.592h-4.158v-3.036h11.88v3.036h-4.18V102.3h-3.542V91.828zm21.274 3.718q0 3.036-1.848 5.005-1.848 1.969-4.774 1.969-2.904 0-4.741-1.969-1.837-1.969-1.837-5.005 0-3.058 1.837-5.016 1.837-1.958 4.741-1.958 2.926 0 4.774 1.958 1.848 1.958 1.848 5.016zm-4.411 2.805q.847-1.067.847-2.805 0-1.738-.847-2.805-.847-1.067-2.211-1.067-1.364 0-2.189 1.056t-.825 2.816q0 1.76.825 2.816.825 1.056 2.189 1.056t2.211-1.067zM3.96 110.792l2.838 5.28 2.838-5.28h3.718l-4.884 8.712v4.796H4.928v-4.796l-4.796-8.712H3.96zm22.11 6.754q0 3.036-1.848 5.005-1.848 1.969-4.774 1.969-2.904 0-4.741-1.969-1.837-1.969-1.837-5.005 0-3.058 1.837-5.016 1.837-1.958 4.741-1.958 2.926 0 4.774 1.958 1.848 1.958 1.848 5.016zm-4.411 2.805q.847-1.067.847-2.805 0-1.738-.847-2.805-.847-1.067-2.211-1.067-1.364 0-2.189 1.056t-.825 2.816q0 1.76.825 2.816.825 1.056 2.189 1.056t2.211-1.067zm11.627 4.169q-2.728 0-4.312-1.496t-1.584-4.246v-7.986h3.52v7.678q0 1.408.627 2.156.627.748 1.749.748 1.1 0 1.727-.748t.627-2.156v-7.678h3.52v8.008q0 2.728-1.584 4.224t-4.29 1.496z" fill="#fff"/></svg>