<svg width="142" height="28" viewBox="0 0 142 28" xmlns="http://www.w3.org/2000/svg"><path d="M6.78 14.34q1 0 1.58-.44v-1.2H6.58v-2.56h4.62v5.42Q9.42 17.2 6.68 17.2q-2.84 0-4.54-1.75Q.44 13.7.44 10.9q0-2.88 1.81-4.63T7 4.52q2.08 0 3.56.96V8.6Q9.02 7.48 7 7.48q-1.48 0-2.41.92-.93.92-.93 2.5 0 1.56.86 2.5t2.26.94zM12.82 17V4.72h8.78v2.76h-5.62V9.4h5.14v2.7h-5.14v2.12h5.62V17h-8.78zm13.64-9.52h-3.78V4.72h10.8v2.76h-3.8V17h-3.22V7.48zm15.6 0h-3.78V4.72h10.8v2.76h-3.8V17h-3.22V7.48zm16.3 1.9V4.72h3.22V17h-3.22v-4.86h-4.74V17H50.4V4.72h3.22v4.66h4.74zM63.4 17V4.72h8.78v2.76h-5.62V9.4h5.14v2.7h-5.14v2.12h5.62V17H63.4zm23.9-7.04l-3.14 4.4h-.08l-3.16-4.4V17h-3.14V4.72h2.98l3.36 5 3.38-5h2.96V17H87.3V9.96zm16.52.9q0 2.76-1.68 4.55T97.8 17.2q-2.64 0-4.31-1.79-1.67-1.79-1.67-4.55 0-2.78 1.67-4.56 1.67-1.78 4.31-1.78 2.66 0 4.34 1.78 1.68 1.78 1.68 4.56zm-4.01 2.55q.77-.97.77-2.55 0-1.58-.77-2.55-.77-.97-2.01-.97-1.24 0-1.99.96t-.75 2.56q0 1.6.75 2.56t1.99.96q1.24 0 2.01-.97zm5.11 2.79v-2.96q1.88 1.28 3.94 1.28 1.9 0 1.9-.98 0-.42-.24-.63-.24-.21-.8-.41l-1.86-.54q-1.62-.46-2.41-1.32-.79-.86-.79-2.34 0-1.78 1.31-2.78 1.31-1 3.33-1 2.18 0 3.86.92V8.4q-1.76-1.22-3.72-1.22-1.62 0-1.62.88 0 .4.25.61.25.21.77.37l1.86.56q1.68.52 2.47 1.43.79.91.79 2.33 0 1.9-1.41 2.87-1.41.97-3.61.97-2.36 0-4.02-1zm13.3-8.72h-3.78V4.72h10.8v2.76h-3.8V17h-3.22V7.48z" fill="#fff"/></svg>