<svg width="138" height="31" viewBox="0 0 138 31" xmlns="http://www.w3.org/2000/svg"><path d="M13.684 11.946q0 3.036-1.848 5.005-1.848 1.969-4.774 1.969-2.904 0-4.741-1.969Q.484 14.982.484 11.946q0-3.058 1.837-5.016 1.837-1.958 4.741-1.958 2.926 0 4.774 1.958 1.848 1.958 1.848 5.016zm-4.411 2.805q.847-1.067.847-2.805 0-1.738-.847-2.805-.847-1.067-2.211-1.067-1.364 0-2.189 1.056t-.825 2.816q0 1.76.825 2.816.825 1.056 2.189 1.056t2.211-1.067zm9.383-.825V18.7h-3.498V5.192h9.504V8.25h-6.006v2.684h5.522v2.992h-5.522zm15.642-5.698H30.14V5.192h11.88v3.036h-4.18V18.7h-3.542V8.228zm17.93 2.09V5.192h3.542V18.7h-3.542v-5.346h-5.214V18.7h-3.542V5.192h3.542v5.126h5.214zm5.544 8.382V5.192h9.658v3.036h-6.182v2.112h5.654v2.97h-5.654v2.332h6.182V18.7h-9.658zm17.204-1.694q-1.914-1.914-1.914-5.06t1.914-5.06q1.914-1.914 5.016-1.914 2.046 0 3.432.924v3.432q-1.43-1.1-3.146-1.1-1.694 0-2.684.99-.99.99-.99 2.728 0 1.716.99 2.706t2.684.99q1.76 0 3.146-1.078v3.432q-1.386.924-3.432.924-3.102 0-5.016-1.914zM94.82 18.7h-9.592V5.192h3.542v10.45h6.05V18.7zm13.838-6.754q0 3.036-1.848 5.005-1.848 1.969-4.774 1.969-2.904 0-4.741-1.969-1.837-1.969-1.837-5.005 0-3.058 1.837-5.016 1.837-1.958 4.741-1.958 2.926 0 4.774 1.958 1.848 1.958 1.848 5.016zm-4.411 2.805q.847-1.067.847-2.805 0-1.738-.847-2.805-.847-1.067-2.211-1.067-1.364 0-2.189 1.056t-.825 2.816q0 1.76.825 2.816.825 1.056 2.189 1.056t2.211-1.067zm11.627 4.169q-2.728 0-4.312-1.496t-1.584-4.246V5.192h3.52v7.678q0 1.408.627 2.156.627.748 1.749.748 1.1 0 1.727-.748t.627-2.156V5.192h3.52V13.2q0 2.728-1.584 4.224t-4.29 1.496zm11.22-10.692v7.414h1.452q1.672 0 2.585-.99t.913-2.706q0-1.738-.913-2.728-.913-.99-2.585-.99h-1.452zm1.628 10.472h-5.104V5.192h5.104q3.168 0 4.994 1.826 1.826 1.826 1.826 4.928t-1.826 4.928q-1.826 1.826-4.994 1.826z" fill="#fff"/></svg>