<svg width="628.507" height="36" viewBox="0 0 628.507 36" xmlns="http://www.w3.org/2000/svg"><path d="M5.304 9.724v8.762H7.02q1.976 0 3.055-1.17 1.079-1.17 1.079-3.198 0-2.054-1.079-3.224-1.079-1.17-3.055-1.17H5.304zM7.228 22.1H1.196V6.136h6.032q3.744 0 5.902 2.158t2.158 5.824q0 3.666-2.158 5.824T7.228 22.1zm7.904 0l6.084-15.964h4.264L31.564 22.1h-4.238l-1.144-3.094h-5.798L19.266 22.1h-4.134zm9.802-6.526l-1.638-4.498-1.638 4.498h3.276zm10.53-5.85H30.55V6.136h14.04v3.588h-4.94V22.1h-4.186V9.724zM43.576 22.1L49.66 6.136h4.264L60.008 22.1H55.77l-1.144-3.094h-5.798L47.71 22.1h-4.134zm9.802-6.526l-1.638-4.498-1.638 4.498h3.276zM65.572 22.1l6.084-15.964h4.264L82.004 22.1h-4.238l-1.144-3.094h-5.798L69.706 22.1h-4.134zm9.802-6.526l-1.638-4.498-1.638 4.498h3.276zm10.53-5.85H80.99V6.136h14.04v3.588h-4.94V22.1h-4.186V9.724zm20.28 0h-4.914V6.136h14.04v3.588h-4.94V22.1h-4.186V9.724zm21.19 2.47V6.136h4.186V22.1h-4.186v-6.318h-6.162V22.1h-4.186V6.136h4.186v6.058h6.162zm6.552 9.906V6.136h11.414v3.588h-7.306v2.496h6.682v3.51h-6.682v2.756h7.306V22.1h-11.414zm18.694 0V6.136h11.414v3.588h-7.306v2.496h6.682v3.51h-6.682v2.756h7.306V22.1H152.62zm17.602-12.376v8.762h1.716q1.976 0 3.055-1.17 1.079-1.17 1.079-3.198 0-2.054-1.079-3.224-1.079-1.17-3.055-1.17h-1.716zm1.924 12.376h-6.032V6.136h6.032q3.744 0 5.902 2.158t2.158 5.824q0 3.666-2.158 5.824t-5.902 2.158zm17.55-3.458q1.3 0 2.054-.572v-1.56h-2.314v-3.328h6.006v7.046q-2.314 2.132-5.876 2.132-3.692 0-5.902-2.275t-2.21-5.915q0-3.744 2.353-6.019t6.175-2.275q2.704 0 4.628 1.248v4.056q-2.002-1.456-4.628-1.456-1.924 0-3.133 1.196t-1.209 3.25q0 2.028 1.118 3.25t2.938 1.222zm7.852 3.458V6.136h11.414v3.588h-7.306v2.496h6.682v3.51h-6.682v2.756h7.306V22.1h-11.414z" fill="#fff"/></svg>