<svg width="309" height="36" viewBox="0 0 309 36" xmlns="http://www.w3.org/2000/svg"><path d="M16.172 14.118q0 3.588-2.184 5.915T8.346 22.36q-3.432 0-5.603-2.327T.572 14.118q0-3.614 2.171-5.928t5.603-2.314q3.458 0 5.642 2.314t2.184 5.928zm-5.213 3.315q1.001-1.261 1.001-3.315 0-2.054-1.001-3.315-1.001-1.261-2.613-1.261T5.759 10.79q-.975 1.248-.975 3.328t.975 3.328q.975 1.248 2.587 1.248t2.613-1.261zM26.832 22.1l-3.328-5.278h-1.456V22.1h-4.134V6.136h7.176q2.626 0 4.212 1.43 1.586 1.43 1.586 4.004 0 1.768-.845 3.016t-2.327 1.794l3.744 5.72h-4.628zM24.648 9.646h-2.6v3.848h2.6q2.158 0 2.158-1.924t-2.158-1.924zm21.008 8.996q1.3 0 2.054-.572v-1.56h-2.314v-3.328h6.006v7.046q-2.314 2.132-5.876 2.132-3.692 0-5.902-2.275t-2.21-5.915q0-3.744 2.353-6.019t6.175-2.275q2.704 0 4.628 1.248v4.056q-2.002-1.456-4.628-1.456-1.924 0-3.133 1.196T41.6 14.17q0 2.028 1.118 3.25t2.938 1.222zm7.852 3.458V6.136h11.414v3.588h-7.306v2.496h6.682v3.51h-6.682v2.756h7.306V22.1H53.508zM71.24 9.724h-4.914V6.136h14.04v3.588h-4.94V22.1H71.24V9.724zm20.28 0h-4.914V6.136h14.04v3.588h-4.94V22.1H91.52V9.724zm21.19 2.47V6.136h4.186V22.1h-4.186v-6.318h-6.162V22.1h-4.186V6.136h4.186v6.058h6.162zm6.552 9.906V6.136h11.414v3.588h-7.306v2.496h6.682v3.51h-6.682v2.756h7.306V22.1h-11.414zm17.68 0l6.084-15.964h4.264l6.084 15.964h-4.238l-1.144-3.094h-5.798l-1.118 3.094h-4.134zm9.802-6.526l-1.638-4.498-1.638 4.498h3.276zm14.742 3.068q1.3 0 2.054-.572v-1.56h-2.314v-3.328h6.006v7.046q-2.314 2.132-5.876 2.132-3.692 0-5.902-2.275t-2.21-5.915q0-3.744 2.353-6.019t6.175-2.275q2.704 0 4.628 1.248v4.056q-2.002-1.456-4.628-1.456-1.924 0-3.133 1.196t-1.209 3.25q0 2.028 1.118 3.25t2.938 1.222zm7.852-12.506h4.186V22.1h-4.186V6.136zM187.252 22.1h-11.336V6.136h4.186v12.35h7.15V22.1zm1.924-15.964h4.186V22.1h-4.186V6.136zm10.816 3.588h-4.914V6.136h14.04v3.588h-4.94V22.1h-4.186V9.724zm14.482-3.588l3.354 6.24 3.354-6.24h4.394l-5.772 10.296V22.1h-4.186v-5.668L209.95 6.136h4.524z" fill="#fff"/></svg>