<svg width="309" height="36" viewBox="0 0 309 36" xmlns="http://www.w3.org/2000/svg"><path d="M8.814 18.642q1.3 0 2.054-.572v-1.56H8.554v-3.328h6.006v7.046q-2.314 2.132-5.876 2.132-3.692 0-5.902-2.275T.572 14.17q0-3.744 2.353-6.019T9.1 5.876q2.704 0 4.628 1.248v4.056Q11.726 9.724 9.1 9.724q-1.924 0-3.133 1.196t-1.209 3.25q0 2.028 1.118 3.25t2.938 1.222zm7.852 3.458V6.136H28.08v3.588h-7.306v2.496h6.682v3.51h-6.682v2.756h7.306V22.1H16.666zM34.398 9.724h-4.914V6.136h14.04v3.588h-4.94V22.1h-4.186V9.724zm20.28 0h-4.914V6.136h14.04v3.588h-4.94V22.1h-4.186V9.724zm21.19 2.47V6.136h4.186V22.1h-4.186v-6.318h-6.162V22.1H65.52V6.136h4.186v6.058h6.162zM82.42 22.1V6.136h11.414v3.588h-7.306v2.496h6.682v3.51h-6.682v2.756h7.306V22.1H82.42zm31.07-9.152l-4.082 5.72h-.104l-4.108-5.72V22.1h-4.082V6.136h3.874l4.368 6.5 4.394-6.5h3.848V22.1h-4.108v-9.152zm21.476 1.17q0 3.588-2.184 5.915t-5.642 2.327q-3.432 0-5.603-2.327t-2.171-5.915q0-3.614 2.171-5.928t5.603-2.314q3.458 0 5.642 2.314t2.184 5.928zm-5.213 3.315q1.001-1.261 1.001-3.315 0-2.054-1.001-3.315-1.001-1.261-2.613-1.261t-2.587 1.248q-.975 1.248-.975 3.328t.975 3.328q.975 1.248 2.587 1.248t2.613-1.261zm6.643 3.627v-3.848q2.444 1.664 5.122 1.664 2.47 0 2.47-1.274 0-.546-.312-.819-.312-.273-1.04-.533l-2.418-.702q-2.106-.598-3.133-1.716-1.027-1.118-1.027-3.042 0-2.314 1.703-3.614 1.703-1.3 4.329-1.3 2.834 0 5.018 1.196v3.848q-2.288-1.586-4.836-1.586-2.106 0-2.106 1.144 0 .52.325.793t1.001.481l2.418.728q2.184.676 3.211 1.859 1.027 1.183 1.027 3.029 0 2.47-1.833 3.731-1.833 1.261-4.693 1.261-3.068 0-5.226-1.3zm17.29-11.336h-4.914V6.136h14.04v3.588h-4.94V22.1h-4.186V9.724zm31.018 4.394q0 3.588-2.184 5.915t-5.642 2.327q-3.432 0-5.603-2.327t-2.171-5.915q0-3.614 2.171-5.928t5.603-2.314q3.458 0 5.642 2.314t2.184 5.928zm-5.213 3.315q1.001-1.261 1.001-3.315 0-2.054-1.001-3.315-1.001-1.261-2.613-1.261t-2.587 1.248q-.975 1.248-.975 3.328t.975 3.328q.975 1.248 2.587 1.248t2.613-1.261zm11.089-.975V22.1h-4.134V6.136h11.232V9.75h-7.098v3.172h6.526v3.536h-6.526zm17.732-10.322l3.354 6.24 3.354-6.24h4.394l-5.772 10.296V22.1h-4.186v-5.668l-5.668-10.296h4.524zm26.13 7.982q0 3.588-2.184 5.915t-5.642 2.327q-3.432 0-5.603-2.327t-2.171-5.915q0-3.614 2.171-5.928t5.603-2.314q3.458 0 5.642 2.314t2.184 5.928zm-5.213 3.315q1.001-1.261 1.001-3.315 0-2.054-1.001-3.315-1.001-1.261-2.613-1.261t-2.587 1.248q-.975 1.248-.975 3.328t.975 3.328q.975 1.248 2.587 1.248t2.613-1.261zm13.741 4.927q-3.224 0-5.096-1.768-1.872-1.768-1.872-5.018V6.136h4.16v9.074q0 1.664.741 2.548.741.884 2.067.884 1.3 0 2.041-.884.741-.884.741-2.548V6.136h4.16V15.6q0 3.224-1.872 4.992-1.872 1.768-5.07 1.768zm18.07-.26l-3.328-5.278h-1.456V22.1h-4.134V6.136h7.176q2.626 0 4.212 1.43 1.586 1.43 1.586 4.004 0 1.768-.845 3.016t-2.327 1.794l3.744 5.72h-4.628zm-2.184-12.454h-2.6v3.848h2.6q2.158 0 2.158-1.924t-2.158-1.924z" fill="#fff"/></svg>