<svg width="142" height="99" viewBox="0 0 142 99" xmlns="http://www.w3.org/2000/svg"><path d="M7.992 25.542v-4.194h2.898V32.4H7.992v-4.374H3.726V32.4H.828V21.348h2.898v4.194h4.266zm9.378 3.42h-1.98V32.4h-2.862V21.348h4.842q1.836 0 2.925.999 1.089.999 1.089 2.817 0 1.8-1.089 2.799-1.089.999-2.925.999zm1.206-3.798q0-1.386-1.512-1.386H15.39v2.772h1.674q.756 0 1.134-.369.378-.369.378-1.017zm4.05 7.236V21.348h7.902v2.484H25.47v1.728h4.626v2.43H25.47v1.908h5.058V32.4h-7.902zm18.216-2.394q.9 0 1.422-.396v-1.08h-1.602v-2.304h4.158v4.878q-1.602 1.476-4.068 1.476-2.556 0-4.086-1.575-1.53-1.575-1.53-4.095 0-2.592 1.629-4.167 1.629-1.575 4.275-1.575 1.872 0 3.204.864v2.808q-1.386-1.008-3.204-1.008-1.332 0-2.169.828t-.837 2.25q0 1.404.774 2.25.774.846 2.034.846zm11.61 2.394l-2.304-3.654H49.14V32.4h-2.862V21.348h4.968q1.818 0 2.916.99 1.098.99 1.098 2.772 0 1.224-.585 2.088-.585.864-1.611 1.242l2.592 3.96h-3.204zm-1.512-8.622h-1.8v2.664h1.8q1.494 0 1.494-1.332t-1.494-1.332zm5.67 8.622V21.348h7.902v2.484h-5.058v1.728h4.626v2.43h-4.626v1.908h5.058V32.4H56.61zm9.342 0V21.348h7.902v2.484h-5.058v1.728h4.626v2.43h-4.626v1.908h5.058V32.4h-7.902zM82.26 21.348h2.79V32.4h-2.34l-4.626-6.462V32.4h-2.79V21.348h2.7l4.266 6.084v-6.084zM94.554 32.4h-7.848V21.348h2.898v8.55h4.95V32.4zm.684 0l4.212-11.052h2.952l4.212 11.052h-2.934l-.792-2.142h-4.014L98.1 32.4h-2.862zm6.786-4.518l-1.134-3.114-1.134 3.114h2.268zm5.544-6.534h2.898v4.698l3.51-4.698h3.366l-4.068 5.292 4.23 5.76h-3.42l-3.618-4.95v4.95h-2.898V21.348zM118.44 32.4V21.348h7.902v2.484h-5.058v1.728h4.626v2.43h-4.626v1.908h5.058V32.4h-7.902zM1.314 52.2V41.148h7.038v1.26H2.718V45.9H7.83v1.26H2.718v3.762h5.634V52.2H1.314zm10.692-9.792v8.514h2.106q1.872 0 2.925-1.143 1.053-1.143 1.053-3.105t-1.062-3.114q-1.062-1.152-2.916-1.152h-2.106zM14.13 52.2h-3.546V41.148h3.546q2.43 0 3.897 1.503 1.467 1.503 1.467 4.023 0 2.52-1.467 4.023Q16.56 52.2 14.13 52.2zm11.988-1.098q1.512 0 2.538-.846v-2.61h-2.43v-1.188h3.744v4.32q-1.44 1.584-3.888 1.584-2.322 0-3.744-1.566-1.422-1.566-1.422-4.122 0-2.538 1.503-4.113 1.503-1.575 3.825-1.575 1.926 0 3.186.99v1.512q-1.35-1.224-3.186-1.224-1.746 0-2.826 1.215t-1.08 3.195q0 1.998 1.026 3.213t2.754 1.215zm6.12 1.098V41.148h7.038v1.26h-5.634V45.9h5.112v1.26h-5.112v3.762h5.634V52.2h-7.038zm12.798-4.068h-4.338v-1.26h4.338v1.26zm3.726-5.724H44.91v-1.26h9.126v1.26h-3.852V52.2h-1.422v-9.792zm14.49.171q1.404 1.593 1.404 4.095t-1.404 4.095q-1.404 1.593-3.6 1.593-2.178 0-3.582-1.593t-1.404-4.095q0-2.502 1.404-4.095t3.582-1.593q2.196 0 3.6 1.593zm-1.008 7.272q.99-1.233.99-3.177t-.99-3.177q-.99-1.233-2.592-1.233-1.584 0-2.574 1.233-.99 1.233-.99 3.177t.99 3.177q.99 1.233 2.574 1.233 1.602 0 2.592-1.233zm8.37-1.719h-4.338v-1.26h4.338v1.26zm3.087 2.664q-1.467-1.566-1.467-4.122t1.467-4.122q1.467-1.566 3.717-1.566 1.818 0 2.97.954v1.494q-1.278-1.17-2.952-1.17-1.692 0-2.736 1.215-1.044 1.215-1.044 3.195 0 1.98 1.044 3.195 1.044 1.215 2.736 1.215 1.656 0 2.952-1.17v1.494q-1.152.954-2.97.954-2.25 0-3.717-1.566zM89.658 52.2h-7.056V41.148h1.422v9.774h5.634V52.2zm9.378-9.621q1.404 1.593 1.404 4.095t-1.404 4.095q-1.404 1.593-3.6 1.593-2.178 0-3.582-1.593t-1.404-4.095q0-2.502 1.404-4.095t3.582-1.593q2.196 0 3.6 1.593zm-1.008 7.272q.99-1.233.99-3.177t-.99-3.177q-.99-1.233-2.592-1.233-1.584 0-2.574 1.233-.99 1.233-.99 3.177t.99 3.177q.99 1.233 2.574 1.233 1.602 0 2.592-1.233zm8.532 2.511q-1.944 0-3.132-1.17-1.188-1.17-1.188-3.384v-6.66h1.404v6.498q0 1.728.774 2.592.774.864 2.142.864 1.368 0 2.142-.864.774-.864.774-2.592v-6.498h1.422v6.678q0 2.196-1.188 3.366t-3.15 1.17zm8.208-9.954v8.514h2.106q1.872 0 2.925-1.143 1.053-1.143 1.053-3.105t-1.062-3.114q-1.062-1.152-2.916-1.152h-2.106zm2.124 9.792h-3.546V41.148h3.546q2.43 0 3.897 1.503 1.467 1.503 1.467 4.023 0 2.52-1.467 4.023-1.467 1.503-3.897 1.503zM5.4 67.572H2.736V72H1.314V60.948H5.4q1.71 0 2.7.855.99.855.99 2.457 0 1.584-.99 2.448-.99.864-2.7.864zm1.683-1.809q.603-.549.603-1.503 0-.954-.603-1.512t-1.701-.558H2.736v4.122h2.646q1.098 0 1.701-.549zM18.036 72H10.98V60.948h1.422v9.774h5.634V72zm1.08 0l4.32-11.052h1.332L29.088 72h-1.44l-1.278-3.33h-4.554L20.556 72h-1.44zm6.768-4.572l-1.8-4.716-1.8 4.716h3.6zm6.984-5.22h-3.852v-1.26h9.126v1.26H34.29V72h-1.422v-9.792zm8.55 4.986V72h-1.422V60.948h6.75v1.26h-5.328v3.726h5.004v1.26h-5.004zm15.246-4.815q1.404 1.593 1.404 4.095t-1.404 4.095q-1.404 1.593-3.6 1.593-2.178 0-3.582-1.593t-1.404-4.095q0-2.502 1.404-4.095t3.582-1.593q2.196 0 3.6 1.593zm-1.008 7.272q.99-1.233.99-3.177t-.99-3.177q-.99-1.233-2.592-1.233-1.584 0-2.574 1.233-.99 1.233-.99 3.177t.99 3.177q.99 1.233 2.574 1.233 1.602 0 2.592-1.233zM66.6 72l-3.168-4.68H61.47V72h-1.422V60.948h4.05q1.71 0 2.691.828.981.828.981 2.376 0 1.35-.738 2.133-.738.783-2.088.981L68.22 72H66.6zm-2.538-9.81H61.47v3.924h2.592q1.098 0 1.701-.522t.603-1.44q0-.918-.603-1.44-.603-.522-1.701-.522zm14.922 1.314l-3.744 6.03h-.072l-3.798-6.03V72h-1.386V60.948h1.314l3.924 6.354 3.906-6.354h1.242V72h-1.386v-8.496z" fill="#fff"/></svg>