<svg width="138" height="31" viewBox="0 0 138 31" xmlns="http://www.w3.org/2000/svg"><path d="M4.598 8.228H.44V5.192h11.88v3.036H8.14V18.7H4.598V8.228zm17.93 2.09V5.192h3.542V18.7h-3.542v-5.346h-5.214V18.7h-3.542V5.192h3.542v5.126h5.214zm5.544 8.382V5.192h9.658v3.036h-6.182v2.112h5.654v2.97h-5.654v2.332h6.182V18.7h-9.658zm14.96 0L48.18 5.192h3.608L56.936 18.7H53.35l-.968-2.618h-4.906L46.53 18.7h-3.498zm8.294-5.522L49.94 9.372l-1.386 3.806h2.772zM63.8 15.774q1.1 0 1.738-.484v-1.32H63.58v-2.816h5.082v5.962q-1.958 1.804-4.972 1.804-3.124 0-4.994-1.925-1.87-1.925-1.87-5.005 0-3.168 1.991-5.093 1.991-1.925 5.225-1.925 2.288 0 3.916 1.056V9.46q-1.694-1.232-3.916-1.232-1.628 0-2.651 1.012t-1.023 2.75q0 1.716.946 2.75t2.486 1.034zm6.644-10.582h3.542V18.7h-3.542V5.192zM85.602 18.7H76.01V5.192h3.542v10.45h6.05V18.7zM87.23 5.192h3.542V18.7H87.23V5.192zm9.152 3.036h-4.158V5.192h11.88v3.036h-4.18V18.7h-3.542V8.228zm12.254-3.036l2.838 5.28 2.838-5.28h3.718l-4.884 8.712V18.7h-3.542v-4.796l-4.796-8.712h3.828z" fill="#fff"/></svg>