<svg width="135" height="120" viewBox="0 0 135 120" xmlns="http://www.w3.org/2000/svg"><path d="M0 39.6l5.568-14.736h4.848L15.984 39.6H11.28l-.768-2.136H5.328L4.56 39.6H0zm9.144-5.904L7.92 30.312l-1.224 3.384h2.448zm8.352 4.068q-2.136-2.076-2.136-5.532t2.136-5.532q2.136-2.076 5.688-2.076 2.184 0 3.648.864v4.392q-1.512-.936-3.168-.936-1.728 0-2.688.84-.96.84-.96 2.448 0 1.584.96 2.424.96.84 2.688.84 1.704 0 3.168-.912v4.392q-1.464.864-3.648.864-3.552 0-5.688-2.076zm14.688-8.94H27.84v-3.96h13.344v3.96H36.84V39.6h-4.656V28.824zM61.2 32.232q0 3.312-2.076 5.46T53.76 39.84q-3.288 0-5.352-2.148-2.064-2.148-2.064-5.46 0-3.336 2.064-5.472 2.064-2.136 5.352-2.136 3.288 0 5.364 2.136t2.076 5.472zm-5.436 2.592q.756-.96.756-2.592 0-1.632-.756-2.592-.756-.96-2.004-.96t-1.992.96q-.744.96-.744 2.592 0 1.632.744 2.592.744.96 1.992.96t2.004-.96zm15.756-9.96h4.488V39.6h-3.816l-5.376-7.368V39.6h-4.488V24.864h4.344l4.848 6.864v-6.864zM5.352 52.824v6.792H6.48q1.536 0 2.388-.912.852-.912.852-2.472 0-1.584-.852-2.496-.852-.912-2.388-.912H5.352zM6.72 63.6H.792V48.864H6.72q3.552 0 5.568 1.992 2.016 1.992 2.016 5.376 0 3.384-2.016 5.376Q10.272 63.6 6.72 63.6zm6.96 0l5.568-14.736h4.848L29.664 63.6H24.96l-.768-2.136h-5.184L18.24 63.6h-4.56zm9.144-5.904L21.6 54.312l-1.224 3.384h2.448zm9.84-4.872H28.32v-3.96h13.344v3.96H37.32V63.6h-4.656V52.824zM40.32 63.6l5.568-14.736h4.848L56.304 63.6H51.6l-.768-2.136h-5.184L44.88 63.6h-4.56zm9.144-5.904l-1.224-3.384-1.224 3.384h2.448zM60.792 63.6l5.568-14.736h4.848L76.776 63.6h-4.704l-.768-2.136H66.12l-.768 2.136h-4.56zm9.144-5.904l-1.224-3.384-1.224 3.384h2.448zm9.84-4.872h-4.344v-3.96h13.344v3.96h-4.344V63.6h-4.656V52.824zM4.68 76.824H.336v-3.96H13.68v3.96H9.336V87.6H4.68V76.824zm19.464 1.344v-5.304H28.8V87.6h-4.656v-5.472h-4.68V87.6h-4.656V72.864h4.656v5.304h4.68zm6.24 9.432V72.864h11.088v3.96h-6.504v1.392h5.952v3.84h-5.952v1.56h6.504V87.6H30.384zm17.016 0V72.864h11.088v3.96h-6.504v1.392h5.952v3.84h-5.952v1.56h6.504V87.6H47.4zm17.088-10.776v6.792h1.128q1.536 0 2.388-.912.852-.912.852-2.472 0-1.584-.852-2.496-.852-.912-2.388-.912h-1.128zM65.856 87.6h-5.928V72.864h5.928q3.552 0 5.568 1.992 2.016 1.992 2.016 5.376 0 3.384-2.016 5.376-2.016 1.992-5.568 1.992zm16.272-3.912q.84 0 1.32-.264v-.648h-1.752v-3.648h5.784v6.888q-2.208 1.824-5.52 1.824-3.504 0-5.616-2.1-2.112-2.1-2.112-5.436 0-3.504 2.22-5.592 2.22-2.088 5.94-2.088 2.496 0 4.344 1.08v4.416q-1.92-1.176-4.344-1.176-1.584 0-2.544.876t-.96 2.484q0 1.56.912 2.472.912.912 2.328.912zm6.768 3.912V72.864h11.088v3.96H93.48v1.392h5.952v3.84H93.48v1.56h6.504V87.6H88.896zm17.016-14.736h4.656V87.6h-4.656V72.864zm15.432 0h4.488V87.6h-3.816l-5.376-7.368V87.6h-4.488V72.864h4.344l4.848 6.864v-6.864zM8.928 111.6l-2.472-4.224h-1.08v4.224H.792V96.864h7.176q2.472 0 4.008 1.428t1.536 3.948q0 3.12-2.52 4.44l3.048 4.92H8.928zm-1.584-10.872H5.376v3h1.968Q9 103.728 9 102.24q0-1.512-1.656-1.512zm7.488 10.872V96.864H25.92v3.96h-6.504v1.392h5.952v3.84h-5.952v1.56h6.504v3.984H14.832zm11.736 0l5.568-14.736h4.848l5.568 14.736h-4.704l-.768-2.136h-5.184l-.768 2.136h-4.56zm9.144-5.904l-1.224-3.384-1.224 3.384h2.448zm18.624 5.904H43.344V96.864H48v10.752h6.336v3.984zm9.696-10.776h-4.344v-3.96h13.344v3.96h-4.344V111.6h-4.656v-10.776zm10.128-3.96h4.656V111.6H74.16V96.864zm17.544 7.392l-3.336 4.176h-.096l-3.312-4.176v7.344H80.4V96.864h4.32l3.6 5.016 3.624-5.016h4.32V111.6h-4.56v-7.344zm6.144 7.344V96.864h11.088v3.96h-6.504v1.392h5.952v3.84h-5.952v1.56h6.504v3.984H97.848z" fill="#fff"/></svg>