<svg id="Layer_1" xmlns="http://www.w3.org/2000/svg" viewBox="0 0 130.24 54.71" width="100%" height="100%" preserveAspectRatio="none"><defs><style>.cls-1{fill:#fff;}</style></defs><title>HPE logo_full white</title><path class="cls-1" d="M246.29,387.55h39v7.27h-39Zm-2.79,10.07h44.57V384.75H243.5Z" transform="translate(-243.5 -384.75)"/><path class="cls-1" d="M315.82,430.56h4.49c-.06-1.34-.72-2.37-2.11-2.37s-2.13,1-2.38,2.37m2.68,5.6a4.25,4.25,0,0,1-4.44-4.61c0-2.85,1.68-4.82,4.12-4.82s3.77,1.79,3.77,4.44V432h-6.19a2.76,2.76,0,0,0,3,2.72,3.83,3.83,0,0,0,2.52-.83h.06v1.51a4.49,4.49,0,0,1-2.81.8m-8.64-5.48c1.29.41,2.72.95,2.72,2.68s-1.51,2.8-3.46,2.8a5.27,5.27,0,0,1-3.05-.82v-1.63h.08a4.41,4.41,0,0,0,3,1c1,0,1.83-.37,1.83-1.16s-.72-1-2.13-1.46-2.69-.88-2.69-2.59,1.44-2.78,3.26-2.78a4.75,4.75,0,0,1,2.76.74v1.65h-.06a4,4,0,0,0-2.66-.95c-1.06,0-1.66.47-1.66,1.11s.66.93,2.11,1.4m-7.76-3.77h1.7V436h-1.7Zm.84-3.66a1.07,1.07,0,1,1,0,2.14,1.07,1.07,0,1,1,0-2.14m-5.57,5.06a2.37,2.37,0,0,1,2.23-1.54,2.17,2.17,0,0,1,.88.14v1.69h-.06a2.71,2.71,0,0,0-1.07-.18,2.06,2.06,0,0,0-2,1.64V436h-1.7v-9.06h1.7Zm-8.11,6.3c1.68,0,2.66-1.33,2.66-3.17s-1-3.17-2.66-3.17a2.55,2.55,0,0,0-2.24,1.44v3.48a2.51,2.51,0,0,0,2.24,1.42m.28-7.88c2.69,0,4.12,2.2,4.12,4.71s-1.43,4.72-4.12,4.72A3.28,3.28,0,0,1,287,435v4.5h-1.7V426.91H287v1a3.22,3.22,0,0,1,2.52-1.21m-8.89,1.58a2.38,2.38,0,0,1,2.24-1.54,2.21,2.21,0,0,1,.88.14v1.69h-.06a2.71,2.71,0,0,0-1.07-.18,2.07,2.07,0,0,0-2,1.64V436H279v-9.06h1.7Zm-9.83,2.25h4.49c-.06-1.34-.72-2.37-2.11-2.37s-2.13,1-2.38,2.37m2.69,5.6a4.25,4.25,0,0,1-4.45-4.61c0-2.85,1.68-4.82,4.12-4.82s3.77,1.79,3.77,4.44V432h-6.19a2.77,2.77,0,0,0,3,2.72,3.81,3.81,0,0,0,2.52-.83h.06v1.51a4.48,4.48,0,0,1-2.8.8m-7.85-9.25H268v1.46h-2.32v4.89c0,1,.53,1.38,1.5,1.38a2,2,0,0,0,.75-.13H268V436a2.66,2.66,0,0,1-1.07.19c-2.11,0-3-1-3-2.74v-5.05h-1.55v-1.46H264V424.5h1.7Zm-7.72-.18c2,0,3.15,1.33,3.15,3.54V436h-1.7v-5.66a1.78,1.78,0,0,0-1.88-2,2.35,2.35,0,0,0-2.27,1.65v6h-1.7v-9.06h1.7v1.32a3.08,3.08,0,0,1,2.7-1.5M243.5,423.1h7.91v1.57h-6.13v3.93h5.55v1.52h-5.55v4.29h6.13V436H243.5ZM371,415.79v-3a2,2,0,0,0-1.72-.95c-1.19,0-2,.87-2,2.43s.8,2.41,2,2.41a2,2,0,0,0,1.72-.94m.08,2.16a3.23,3.23,0,0,1-2.71,1.15c-2.33,0-3.83-2.14-3.83-4.78s1.5-4.79,3.83-4.79a3.26,3.26,0,0,1,2.63,1.05V406h2.7V418.9h-2.62Zm-10.35-6.74a2.43,2.43,0,0,1,2.22-1.58,2.22,2.22,0,0,1,.88.16v2.6h-.1a3,3,0,0,0-1.19-.21,1.71,1.71,0,0,0-1.72,1.44v5.28h-2.71v-9.17h2.62Zm-7.25,4.8v-.78a3.09,3.09,0,0,0-1.49-.31c-.88,0-1.41.33-1.41,1.07s.53,1.1,1.33,1.1a1.58,1.58,0,0,0,1.57-1.08m.09,2a3.08,3.08,0,0,1-2.42,1.07,3,3,0,0,1-3.24-3c0-1.79,1.46-3,3.55-3a6.94,6.94,0,0,1,2,.31v-.17c0-1-.55-1.42-2-1.42a5.19,5.19,0,0,0-2.56.7h-.11v-2.18a6.75,6.75,0,0,1,3.14-.76c2.74,0,4.24,1.31,4.24,3.62v5.75h-2.62Zm-11.95-3.25v4.16H339V406h2.7v7.34l2.73-3.63h3.07v.1L344.18,414l3.28,4.79v.11h-3.09ZM330,414.32a4.57,4.57,0,0,1,4.77-4.79,4.22,4.22,0,0,1,2.54.7v2.32h-.1a3.39,3.39,0,0,0-2.09-.72,2.49,2.49,0,0,0,0,5,3.34,3.34,0,0,0,2.09-.73h.1v2.33a4.22,4.22,0,0,1-2.54.7,4.55,4.55,0,0,1-4.77-4.78M325.87,416v-.78a3.09,3.09,0,0,0-1.49-.31c-.88,0-1.42.33-1.42,1.07s.54,1.1,1.34,1.1a1.58,1.58,0,0,0,1.57-1.08m.09,2a3.08,3.08,0,0,1-2.42,1.07,3,3,0,0,1-3.24-3c0-1.79,1.46-3,3.55-3a6.94,6.94,0,0,1,2,.31v-.17c0-1-.55-1.42-2-1.42a5.16,5.16,0,0,0-2.56.7h-.11v-2.18a6.75,6.75,0,0,1,3.14-.76c2.74,0,4.24,1.31,4.24,3.62v5.75H326ZM315,412.35a2,2,0,1,0,0-4h-1.76v4Zm4.91-2c0,2.8-1.86,4.33-4.69,4.33h-2v4.18h-2.79V406h4.77c2.83,0,4.69,1.53,4.69,4.37m-16-.66h2v2.18h-2v3.73c0,.81.31,1.18,1.13,1.18a2.43,2.43,0,0,0,.82-.13h.06v2.15a5,5,0,0,1-1.66.26c-2.19,0-3.05-1-3.05-3.33v-3.86h-3.46v3.73c0,.81.3,1.18,1.12,1.18a2.39,2.39,0,0,0,.82-.13h.06v2.15a5,5,0,0,1-1.66.26c-2.19,0-3.05-1-3.05-3.33v-3.86h-1.39v-2.18H295v-2.51h2.71v2.51h3.46v-2.51h2.7ZM287,413.25h3.32c-.06-.94-.45-1.6-1.53-1.6a1.69,1.69,0,0,0-1.79,1.6m2.11,5.85a4.44,4.44,0,0,1-4.75-4.73c0-2.87,1.89-4.84,4.38-4.84,2.73,0,4.08,1.83,4.08,4.57v1H287a2.3,2.3,0,0,0,2.54,1.79,4.36,4.36,0,0,0,2.52-.74h.1v2.12a5.11,5.11,0,0,1-3.05.8m-6.53,0c-2.21,0-3.11-.88-3.11-3V406h2.7V416c0,.64.25.87.78.87a1.8,1.8,0,0,0,.61-.13h0v2.25a3.24,3.24,0,0,1-1,.16m-11.2-5.6-1.44,5.4h-2.44l-2.78-9.07v-.1h2.66l1.52,5.42,1.43-5.42h2.17l1.46,5.42,1.53-5.42H278v.1l-2.78,9.07h-2.44Zm-13.09-.25h3.32c-.07-.94-.45-1.6-1.54-1.6a1.68,1.68,0,0,0-1.78,1.6m2.11,5.85a4.44,4.44,0,0,1-4.75-4.73c0-2.87,1.88-4.84,4.38-4.84,2.72,0,4.07,1.83,4.07,4.57v1h-5.81a2.3,2.3,0,0,0,2.54,1.79,4.38,4.38,0,0,0,2.52-.74h.1v2.12a5.13,5.13,0,0,1-3.05.8m-14.09-.2H243.5V406h2.79v5.09h5V406h2.79V418.9h-2.79v-5.34h-5Z" transform="translate(-243.5 -384.75)"/></svg>