<svg width="142" height="31" viewBox="0 0 142 31" xmlns="http://www.w3.org/2000/svg"><path d="M13.684 11.946q0 3.036-1.848 5.005-1.848 1.969-4.774 1.969-2.904 0-4.741-1.969Q.484 14.982.484 11.946q0-3.058 1.837-5.016 1.837-1.958 4.741-1.958 2.926 0 4.774 1.958 1.848 1.958 1.848 5.016zm-4.411 2.805q.847-1.067.847-2.805 0-1.738-.847-2.805-.847-1.067-2.211-1.067-1.364 0-2.189 1.056t-.825 2.816q0 1.76.825 2.816.825 1.056 2.189 1.056t2.211-1.067zM22.704 18.7l-2.816-4.466h-1.232V18.7h-3.498V5.192h6.072q2.222 0 3.564 1.21t1.342 3.388q0 1.496-.715 2.552t-1.969 1.518l3.168 4.84h-3.916zM20.856 8.162h-2.2v3.256h2.2q1.826 0 1.826-1.628t-1.826-1.628zm17.776 7.612q1.1 0 1.738-.484v-1.32h-1.958v-2.816h5.082v5.962q-1.958 1.804-4.972 1.804-3.124 0-4.994-1.925-1.87-1.925-1.87-5.005 0-3.168 1.991-5.093 1.991-1.925 5.225-1.925 2.288 0 3.916 1.056V9.46q-1.694-1.232-3.916-1.232-1.628 0-2.651 1.012T35.2 11.99q0 1.716.946 2.75t2.486 1.034zm6.644 2.926V5.192h9.658v3.036h-6.182v2.112h5.654v2.97h-5.654v2.332h6.182V18.7h-9.658zM60.28 8.228h-4.158V5.192h11.88v3.036h-4.18V18.7H60.28V8.228z" fill="#fff"/></svg>