<svg width="372" height="22" viewBox="0 0 372 22" xmlns="http://www.w3.org/2000/svg"><path d="M6.216 7.966V4.704H8.47V13.3H6.216V9.898H2.898V13.3H.644V4.704h2.254v3.262h3.318zm7.294 2.66h-1.54V13.3H9.744V4.704h3.766q1.428 0 2.275.777t.847 2.191q0 1.4-.847 2.177-.847.777-2.275.777zm.938-2.954q0-1.078-1.176-1.078H11.97V8.75h1.302q.588 0 .882-.287.294-.287.294-.791zm3.15 5.628V4.704h6.146v1.932H19.81V7.98h3.598v1.89H19.81v1.484h3.934V13.3h-6.146zm14.168-1.862q.7 0 1.106-.308v-.84h-1.246V8.498h3.234v3.794q-1.246 1.148-3.164 1.148-1.988 0-3.178-1.225t-1.19-3.185q0-2.016 1.267-3.241t3.325-1.225q1.456 0 2.492.672V7.42q-1.078-.784-2.492-.784-1.036 0-1.687.644t-.651 1.75q0 1.092.602 1.75.602.658 1.582.658zm9.03 1.862l-1.792-2.842h-.784V13.3h-2.226V4.704h3.864q1.414 0 2.268.77.854.77.854 2.156 0 .952-.455 1.624-.455.672-1.253.966l2.016 3.08h-2.492zM39.62 6.594h-1.4v2.072h1.4q1.162 0 1.162-1.036T39.62 6.594zm4.41 6.706V4.704h6.146v1.932h-3.934V7.98h3.598v1.89h-3.598v1.484h3.934V13.3H44.03zm7.266 0V4.704h6.146v1.932h-3.934V7.98h3.598v1.89h-3.598v1.484h3.934V13.3h-6.146zM63.98 4.704h2.17V13.3h-1.82l-3.598-5.026V13.3h-2.17V4.704h2.1l3.318 4.732V4.704zm9.562 8.596h-6.104V4.704h2.254v6.65h3.85V13.3zm.532 0l3.276-8.596h2.296l3.276 8.596H80.64l-.616-1.666h-3.122L76.3 13.3h-2.226zm5.278-3.514l-.882-2.422-.882 2.422h1.764zm4.312-5.082h2.254v3.654l2.73-3.654h2.618L88.102 8.82l3.29 4.48h-2.66l-2.814-3.85v3.85h-2.254V4.704zM92.12 13.3V4.704h6.146v1.932h-3.934V7.98h3.598v1.89h-3.598v1.484h3.934V13.3H92.12zm11.9 1.176h-1.834V4.2h1.834v10.276zM108.486 13.3V4.704h5.474v.98h-4.382V8.4h3.976v.98h-3.976v2.926h4.382v.994h-5.474zm8.316-7.616v6.622h1.638q1.456 0 2.275-.889t.819-2.415q0-1.526-.826-2.422-.826-.896-2.268-.896h-1.638zm1.652 7.616h-2.758V4.704h2.758q1.89 0 3.031 1.169 1.141 1.169 1.141 3.129t-1.141 3.129q-1.141 1.169-3.031 1.169zm9.324-.854q1.176 0 1.974-.658v-2.03h-1.89v-.924h2.912v3.36q-1.12 1.232-3.024 1.232-1.806 0-2.912-1.218-1.106-1.218-1.106-3.206 0-1.974 1.169-3.199 1.169-1.225 2.975-1.225 1.498 0 2.478.77v1.176q-1.05-.952-2.478-.952-1.358 0-2.198.945-.84.945-.84 2.485 0 1.554.798 2.499.798.945 2.142.945zm4.76.854V4.704h5.474v.98h-4.382V8.4h3.976v.98h-3.976v2.926h4.382v.994h-5.474zm9.954-3.164h-3.374v-.98h3.374v.98zm2.898-4.452h-2.996v-.98h7.098v.98h-2.996V13.3h-1.106V5.684zm11.27.133q1.092 1.239 1.092 3.185t-1.092 3.185q-1.092 1.239-2.8 1.239-1.694 0-2.786-1.239t-1.092-3.185q0-1.946 1.092-3.185t2.786-1.239q1.708 0 2.8 1.239zm-.784 5.656q.77-.959.77-2.471t-.77-2.471q-.77-.959-2.016-.959-1.232 0-2.002.959-.77.959-.77 2.471t.77 2.471q.77.959 2.002.959 1.246 0 2.016-.959zm6.51-1.337h-3.374v-.98h3.374v.98zm2.401 2.072q-1.141-1.218-1.141-3.206t1.141-3.206q1.141-1.218 2.891-1.218 1.414 0 2.31.742v1.162q-.994-.91-2.296-.91-1.316 0-2.128.945t-.812 2.485q0 1.54.812 2.485.812.945 2.128.945 1.288 0 2.296-.91v1.162q-.896.742-2.31.742-1.75 0-2.891-1.218zm12.411 1.092h-5.488V4.704h1.106v7.602h4.382v.994zm7.294-7.483q1.092 1.239 1.092 3.185t-1.092 3.185q-1.092 1.239-2.8 1.239-1.694 0-2.786-1.239t-1.092-3.185q0-1.946 1.092-3.185t2.786-1.239q1.708 0 2.8 1.239zm-.784 5.656q.77-.959.77-2.471t-.77-2.471q-.77-.959-2.016-.959-1.232 0-2.002.959-.77.959-.77 2.471t.77 2.471q.77.959 2.002.959 1.246 0 2.016-.959zm6.636 1.953q-1.512 0-2.436-.91-.924-.91-.924-2.632v-5.18h1.092v5.054q0 1.344.602 2.016.602.672 1.666.672t1.666-.672q.602-.672.602-2.016V4.704h1.106v5.194q0 1.708-.924 2.618-.924.91-2.45.91zm6.384-7.742v6.622h1.638q1.456 0 2.275-.889t.819-2.415q0-1.526-.826-2.422-.826-.896-2.268-.896h-1.638zm1.652 7.616h-2.758V4.704h2.758q1.89 0 3.031 1.169 1.141 1.169 1.141 3.129t-1.141 3.129Q200.27 13.3 198.38 13.3zm11.984-3.444h-2.072V13.3h-1.106V4.704h3.178q1.33 0 2.1.665t.77 1.911q0 1.232-.77 1.904-.77.672-2.1.672zm1.309-1.407q.469-.427.469-1.169t-.469-1.176q-.469-.434-1.323-.434h-2.058v3.206h2.058q.854 0 1.323-.427zm8.519 4.851h-5.488V4.704h1.106v7.602h4.382v.994zm.84 0l3.36-8.596h1.036l3.36 8.596h-1.12l-.994-2.59h-3.542l-.98 2.59h-1.12zm5.264-3.556l-1.4-3.668-1.4 3.668h2.8zm5.432-4.06h-2.996v-.98h7.098v.98h-2.996V13.3h-1.106V5.684zm6.65 3.878V13.3h-1.106V4.704h5.25v.98h-4.144v2.898h3.892v.98h-3.892zm11.858-3.745q1.092 1.239 1.092 3.185t-1.092 3.185q-1.092 1.239-2.8 1.239-1.694 0-2.786-1.239t-1.092-3.185q0-1.946 1.092-3.185t2.786-1.239q1.708 0 2.8 1.239zm-.784 5.656q.77-.959.77-2.471t-.77-2.471q-.77-.959-2.016-.959-1.232 0-2.002.959-.77.959-.77 2.471t.77 2.471q.77.959 2.002.959 1.246 0 2.016-.959zm8.512 1.827L255.5 9.66h-1.526v3.64h-1.106V4.704h3.15q1.33 0 2.093.644.763.644.763 1.848 0 1.05-.574 1.659t-1.624.763l2.548 3.682h-1.26zm-1.974-7.63h-2.016v3.052h2.016q.854 0 1.323-.406t.469-1.12q0-.714-.469-1.12-.469-.406-1.323-.406zm11.606 1.022l-2.912 4.69h-.056l-2.954-4.69V13.3h-1.078V4.704h1.022l3.052 4.942 3.038-4.942h.966V13.3h-1.078V6.692z" fill="#fff"/></svg>