<svg width="317" height="104" viewBox="0 0 317 104" xmlns="http://www.w3.org/2000/svg"><path d="M5.304 30.524v8.762H7.02q1.976 0 3.055-1.17 1.079-1.17 1.079-3.198 0-2.054-1.079-3.224-1.079-1.17-3.055-1.17H5.304zM7.228 42.9H1.196V26.936h6.032q3.744 0 5.902 2.158t2.158 5.824q0 3.666-2.158 5.824T7.228 42.9zm24.908-7.982q0 3.588-2.184 5.915T24.31 43.16q-3.432 0-5.603-2.327t-2.171-5.915q0-3.614 2.171-5.928t5.603-2.314q3.458 0 5.642 2.314t2.184 5.928zm-5.213 3.315q1.001-1.261 1.001-3.315 0-2.054-1.001-3.315-1.001-1.261-2.613-1.261t-2.587 1.248q-.975 1.248-.975 3.328t.975 3.328q.975 1.248 2.587 1.248t2.613-1.261zm22.191-3.575q1.144.364 1.872 1.404.728 1.04.728 2.366 0 2.158-1.391 3.315T46.41 42.9h-7.332V26.936h6.838q2.522 0 3.926 1.118 1.404 1.118 1.404 3.224 0 1.248-.611 2.145t-1.521 1.235zm-6.058-4.29v2.886h2.392q1.872 0 1.872-1.456 0-1.43-1.872-1.43h-2.392zm2.808 6.006h-2.808v3.094h2.808q.858 0 1.339-.416t.481-1.118q0-.728-.481-1.144-.481-.416-1.339-.416zm22.672-1.456q0 3.588-2.184 5.915T60.71 43.16q-3.432 0-5.603-2.327t-2.171-5.915q0-3.614 2.171-5.928t5.603-2.314q3.458 0 5.642 2.314t2.184 5.928zm-5.213 3.315q1.001-1.261 1.001-3.315 0-2.054-1.001-3.315-1.001-1.261-2.613-1.261t-2.587 1.248q-.975 1.248-.975 3.328t.975 3.328q.975 1.248 2.587 1.248t2.613-1.261zm10.517-7.709h-4.914v-3.588h14.04v3.588h-4.94V42.9H73.84V30.524zm21.19 2.47v-6.058h4.186V42.9H95.03v-6.318h-6.162V42.9h-4.186V26.936h4.186v6.058h6.162zm17.212 3.328l2.47-9.386h3.172l2.444 9.386 2.21-9.386h4.212L122.538 42.9h-3.822l-2.47-9.36-2.496 9.36h-3.822l-4.186-15.964h4.264l2.236 9.386zm15.86-9.386h4.186V42.9h-4.186V26.936zm10.816 3.588h-4.914v-3.588h14.04v3.588h-4.94V42.9h-4.186V30.524zm21.19 2.47v-6.058h4.186V42.9h-4.186v-6.318h-6.162V42.9h-4.186V26.936h4.186v6.058h6.162zm15.99-2.47h-4.914v-3.588h14.04v3.588h-4.94V42.9h-4.186V30.524zm21.19 2.47v-6.058h4.186V42.9h-4.186v-6.318h-6.162V42.9h-4.186V26.936h4.186v6.058h6.162zm6.552 9.906V26.936h11.414v3.588h-7.306v2.496h6.682v3.51h-6.682v2.756h7.306V42.9H203.84zm20.332-2.002q-2.262-2.262-2.262-5.98 0-3.718 2.262-5.98 2.262-2.262 5.928-2.262 2.418 0 4.056 1.092v4.056q-1.69-1.3-3.718-1.3-2.002 0-3.172 1.17-1.17 1.17-1.17 3.224 0 2.028 1.17 3.198t3.172 1.17q2.08 0 3.718-1.274v4.056q-1.638 1.092-4.056 1.092-3.666 0-5.928-2.262zm23.452 2.002h-11.336V26.936h4.186v12.35h7.15V42.9zm16.354-7.982q0 3.588-2.184 5.915t-5.642 2.327q-3.432 0-5.603-2.327t-2.171-5.915q0-3.614 2.171-5.928t5.603-2.314q3.458 0 5.642 2.314t2.184 5.928zm-5.213 3.315q1.001-1.261 1.001-3.315 0-2.054-1.001-3.315-1.001-1.261-2.613-1.261t-2.587 1.248q-.975 1.248-.975 3.328t.975 3.328q.975 1.248 2.587 1.248t2.613-1.261zm13.741 4.927q-3.224 0-5.096-1.768-1.872-1.768-1.872-5.018v-9.438h4.16v9.074q0 1.664.741 2.548.741.884 2.067.884 1.3 0 2.041-.884.741-.884.741-2.548v-9.074h4.16V36.4q0 3.224-1.872 4.992-1.872 1.768-5.07 1.768zm13.26-12.636v8.762h1.716q1.976 0 3.055-1.17 1.079-1.17 1.079-3.198 0-2.054-1.079-3.224-1.079-1.17-3.055-1.17h-1.716zM287.69 42.9h-6.032V26.936h6.032q3.744 0 5.902 2.158t2.158 5.824q0 3.666-2.158 5.824T287.69 42.9zM5.434 56.524H.52v-3.588h14.04v3.588H9.62V68.9H5.434V56.524zm21.19 2.47v-6.058h4.186V68.9h-4.186v-6.318h-6.162V68.9h-4.186V52.936h4.186v6.058h6.162zm5.538 9.906l6.084-15.964h4.264L48.594 68.9h-4.238l-1.144-3.094h-5.798L36.296 68.9h-4.134zm9.802-6.526l-1.638-4.498-1.638 4.498h3.276zm10.53-5.85H47.58v-3.588h14.04v3.588h-4.94V68.9h-4.186V56.524zm17.68 10.374q-2.262-2.262-2.262-5.98 0-3.718 2.262-5.98 2.262-2.262 5.928-2.262 2.418 0 4.056 1.092v4.056q-1.69-1.3-3.718-1.3-2.002 0-3.172 1.17-1.17 1.17-1.17 3.224 0 2.028 1.17 3.198t3.172 1.17q2.08 0 3.718-1.274v4.056q-1.638 1.092-4.056 1.092-3.666 0-5.928-2.262zm27.04-5.98q0 3.588-2.184 5.915t-5.642 2.327q-3.432 0-5.603-2.327t-2.171-5.915q0-3.614 2.171-5.928t5.603-2.314q3.458 0 5.642 2.314t2.184 5.928zm-5.213 3.315q1.001-1.261 1.001-3.315 0-2.054-1.001-3.315-1.001-1.261-2.613-1.261t-2.587 1.248q-.975 1.248-.975 3.328t.975 3.328q.975 1.248 2.587 1.248t2.613-1.261zm19.331-4.485l-4.082 5.72h-.104l-4.108-5.72V68.9h-4.082V52.936h3.874l4.368 6.5 4.394-6.5h3.848V68.9h-4.108v-9.152zm6.5 9.152V52.936h11.414v3.588h-7.306v2.496h6.682v3.51h-6.682v2.756h7.306V68.9h-11.414zm13.13-1.04v-3.848q2.444 1.664 5.122 1.664 2.47 0 2.47-1.274 0-.546-.312-.819-.312-.273-1.04-.533l-2.418-.702q-2.106-.598-3.133-1.716-1.027-1.118-1.027-3.042 0-2.314 1.703-3.614 1.703-1.3 4.329-1.3 2.834 0 5.018 1.196v3.848q-2.288-1.586-4.836-1.586-2.106 0-2.106 1.144 0 .52.325.793t1.001.481l2.418.728q2.184.676 3.211 1.859 1.027 1.183 1.027 3.029 0 2.47-1.833 3.731-1.833 1.261-4.693 1.261-3.068 0-5.226-1.3zm22.906-11.336h-4.914v-3.588h14.04v3.588h-4.94V68.9h-4.186V56.524zm25.142 4.394q0 3.588-2.184 5.915t-5.642 2.327q-3.432 0-5.603-2.327t-2.171-5.915q0-3.614 2.171-5.928t5.603-2.314q3.458 0 5.642 2.314t2.184 5.928zm-5.213 3.315q1.001-1.261 1.001-3.315 0-2.054-1.001-3.315-1.001-1.261-2.613-1.261t-2.587 1.248q-.975 1.248-.975 3.328t.975 3.328q.975 1.248 2.587 1.248t2.613-1.261zm15.639-11.297l3.354 6.24 3.354-6.24h4.394l-5.772 10.296V68.9h-4.186v-5.668l-5.668-10.296h4.524zm26.13 7.982q0 3.588-2.184 5.915t-5.642 2.327q-3.432 0-5.603-2.327t-2.171-5.915q0-3.614 2.171-5.928t5.603-2.314q3.458 0 5.642 2.314t2.184 5.928zm-5.213 3.315q1.001-1.261 1.001-3.315 0-2.054-1.001-3.315-1.001-1.261-2.613-1.261t-2.587 1.248q-.975 1.248-.975 3.328t.975 3.328q.975 1.248 2.587 1.248t2.613-1.261zm13.741 4.927q-3.224 0-5.096-1.768-1.872-1.768-1.872-5.018v-9.438h4.16v9.074q0 1.664.741 2.548.741.884 2.067.884 1.3 0 2.041-.884.741-.884.741-2.548v-9.074h4.16V62.4q0 3.224-1.872 4.992-1.872 1.768-5.07 1.768z" fill="#fff"/></svg>