<svg width="117.6" height="18" viewBox="0 0 117.6 18" xmlns="http://www.w3.org/2000/svg"><path d="M13.676 11.05V3.068h5.707v1.794H15.73V6.11h3.341v1.755H15.73v1.378h3.653v1.807h-5.707zm12.57-7.982h2.262l-2.561 3.9 2.691 4.082h-2.327l-1.586-2.457-1.586 2.457h-2.275l2.691-4.082-2.561-3.9h2.327l1.443 2.275 1.482-2.275zm7.526 5.499h-1.43v2.483h-2.067V3.068h3.497q1.326 0 2.113.721.786.722.786 2.035 0 1.3-.786 2.022-.787.721-2.113.721zm.871-2.743q0-1.001-1.092-1.001h-1.209v2.002h1.209q.546 0 .819-.266.273-.267.273-.735zm9.593 5.226h-5.668V3.068h2.093v6.175h3.575v1.807zm9.177-3.991q0 1.794-1.092 2.958-1.092 1.163-2.821 1.163-1.716 0-2.801-1.163-1.086-1.164-1.086-2.958 0-1.807 1.086-2.964 1.085-1.157 2.801-1.157 1.729 0 2.821 1.157t1.092 2.964zm-2.606 1.657q.5-.63.5-1.657 0-1.027-.5-1.657-.501-.631-1.307-.631-.806 0-1.294.624-.487.624-.487 1.664t.487 1.664q.488.624 1.294.624t1.306-.63zm8.936 2.334l-1.664-2.639h-.728v2.639h-2.067V3.068h3.588q1.313 0 2.106.715.793.715.793 2.002 0 .884-.422 1.508-.423.624-1.164.897l1.872 2.86h-2.314zm-1.092-6.227h-1.3v1.924h1.3q1.079 0 1.079-.962t-1.079-.962zm5.095 6.227V3.068h5.707v1.794H65.8V6.11h3.341v1.755H65.8v1.378h3.653v1.807h-5.707zm16.378-7.982h2.015v7.982h-1.69l-3.341-4.667v4.667h-2.015V3.068h1.95l3.081 4.394V3.068zm11.699 3.991q0 1.794-1.092 2.958-1.092 1.163-2.821 1.163-1.716 0-2.801-1.163-1.086-1.164-1.086-2.958 0-1.807 1.086-2.964 1.085-1.157 2.801-1.157 1.729 0 2.821 1.157t1.092 2.964zm-2.606 1.657q.5-.63.5-1.657 0-1.027-.5-1.657-.501-.631-1.307-.631-.806 0-1.293.624-.488.624-.488 1.664t.487 1.664q.488.624 1.294.624t1.306-.63zm6.973-.955l1.235-4.693h1.586l1.222 4.693 1.105-4.693h2.106l-2.106 7.982h-1.911l-1.235-4.68-1.248 4.68h-1.911L92.94 3.068h2.132l1.118 4.693z" fill="#01a982"/></svg>